static_grf.mot
version=1
nRows=27
nColumns 19
inDegrees=yes
endheader
time	1_ground_force_vx	1_ground_force_vy	1_ground_force_vz	1_ground_force_px	1_ground_force_py	1_ground_force_pz	1_ground_torque_x	1_ground_torque_y	1_ground_torque_z	2_ground_force_vx	2_ground_force_vy	2_ground_force_vz	2_ground_force_px	2_ground_force_py	2_ground_force_pz	2_ground_torque_x	2_ground_torque_y	2_ground_torque_z
            0.900000	           -1.291033	          287.964493	          -17.517689	           -0.245689	            0.006222	           -0.405706	           -0.006237	            1.391165	           -0.084628	           -0.679312	          255.347296	           19.776339	           -0.245710	            0.005561	           -0.687745	            0.002426	           -0.911809	           -0.070619
            0.900500	           -1.198323	          287.962741	          -17.105213	           -0.245681	            0.006224	           -0.406035	           -0.005823	            1.399394	           -0.083125	           -0.676695	          254.611038	           19.679854	           -0.246115	            0.005560	           -0.687766	            0.002465	           -0.927592	           -0.071697
            0.901000	           -1.244732	          286.702218	          -17.431502	           -0.245608	            0.006226	           -0.406552	           -0.006014	            1.385194	           -0.084220	           -0.304513	          255.348650	           19.776179	           -0.245695	            0.005562	           -0.687898	            0.001152	           -0.966100	           -0.074822
            0.901500	           -1.152920	          288.504106	          -17.240576	           -0.245712	            0.006222	           -0.405576	           -0.005631	            1.409075	           -0.084204	           -0.351486	          255.349485	           19.494631	           -0.245775	            0.005560	           -0.687603	            0.001318	           -0.957152	           -0.073074
            0.902000	           -1.152935	          287.963536	          -17.288751	           -0.245856	            0.006224	           -0.406062	           -0.005801	            1.448770	           -0.086981	           -0.444378	          255.163834	           19.822510	           -0.246003	            0.005559	           -0.687496	            0.001658	           -0.952263	           -0.073977
            0.902500	           -1.382378	          287.963885	          -17.379893	           -0.245965	            0.006223	           -0.405948	           -0.006716	            1.398963	           -0.084434	           -0.215507	          256.638338	           19.686883	           -0.245624	            0.005565	           -0.688632	            0.000828	           -0.986109	           -0.075645
            0.903000	           -1.290662	          289.045104	          -17.283771	           -0.245783	            0.006220	           -0.405238	           -0.006086	            1.362934	           -0.081498	           -0.445871	          255.533455	           19.448399	           -0.245841	            0.005562	           -0.688001	            0.001663	           -0.953322	           -0.072556
            0.903500	           -1.061672	          287.784044	          -17.473175	           -0.245515	            0.006223	           -0.405857	           -0.005416	            1.467985	           -0.089131	           -0.445769	          255.532618	           19.683040	           -0.245622	            0.005562	           -0.687780	            0.001629	           -0.933600	           -0.071913
            0.904000	           -1.428856	          288.325391	          -17.607513	           -0.245564	            0.006223	           -0.405925	           -0.006876	            1.387394	           -0.084726	           -0.540112	          255.716253	           19.730665	           -0.245681	            0.005563	           -0.688251	            0.002006	           -0.949843	           -0.073288
            0.904500	           -1.336664	          287.423460	          -17.474038	           -0.245791	            0.006225	           -0.406245	           -0.006355	            1.366425	           -0.083072	           -0.444501	          255.164838	           19.540942	           -0.245717	            0.005561	           -0.687864	            0.001626	           -0.933446	           -0.071485
            0.905000	           -1.290365	          287.422682	          -17.290728	           -0.245722	            0.006223	           -0.405890	           -0.006110	            1.361004	           -0.081875	           -0.302622	          254.797034	           19.539568	           -0.245945	            0.005560	           -0.687582	            0.001161	           -0.977260	           -0.074943
            0.905500	           -1.061378	          287.423120	          -17.383009	           -0.245535	            0.006225	           -0.406228	           -0.005383	            1.457619	           -0.088155	           -0.398836	          255.532117	           19.870732	           -0.246279	            0.005559	           -0.687854	            0.001476	           -0.945914	           -0.073556
            0.906000	           -1.336520	          288.504464	          -17.331833	           -0.245630	            0.006222	           -0.405592	           -0.006055	            1.307079	           -0.078522	           -0.679353	          255.347631	           19.682483	           -0.245774	            0.005561	           -0.687672	            0.002526	           -0.949571	           -0.073194
            0.906500	           -1.427829	          287.062124	          -17.291933	           -0.245762	            0.006225	           -0.406409	           -0.006712	            1.349512	           -0.081291	           -0.397069	          254.981506	           19.352552	           -0.245654	            0.005561	           -0.687612	            0.001459	           -0.936725	           -0.071095
            0.907000	           -1.152609	          287.422316	          -17.199358	           -0.245638	            0.006226	           -0.406463	           -0.005491	            1.369191	           -0.081932	           -0.539489	          255.532447	           19.636152	           -0.245771	            0.005562	           -0.687999	            0.001967	           -0.931460	           -0.071577
            0.907500	           -1.152917	          287.242670	          -17.337698	           -0.245970	            0.006225	           -0.406381	           -0.005490	            1.367896	           -0.082565	           -0.443131	          254.796192	           19.633484	           -0.245736	            0.005559	           -0.687138	            0.001610	           -0.925971	           -0.071351
            0.908000	           -1.198712	          287.602996	          -17.290183	           -0.245374	            0.006224	           -0.406187	           -0.005702	            1.368037	           -0.082244	           -0.447118	          255.901097	           19.637426	           -0.245753	            0.005562	           -0.687990	            0.001618	           -0.925883	           -0.071051
            0.908500	           -1.153130	          287.783633	          -17.381235	           -0.246061	            0.006224	           -0.406039	           -0.005751	            1.435263	           -0.086685	           -0.349431	          254.796530	           19.633444	           -0.245948	            0.005560	           -0.687581	            0.001320	           -0.962306	           -0.074151
            0.909000	           -1.381970	          287.602764	          -17.243872	           -0.245863	            0.006223	           -0.405920	           -0.006483	            1.349155	           -0.080892	           -0.352151	          255.533625	           19.495288	           -0.245836	            0.005562	           -0.688149	            0.001333	           -0.967434	           -0.073808
            0.909500	           -1.244882	          288.144147	          -17.379462	           -0.245683	            0.006221	           -0.405330	           -0.005875	            1.359740	           -0.082013	           -0.588271	          256.084228	           19.778927	           -0.245894	            0.005561	           -0.688019	            0.002090	           -0.909947	           -0.070281
            0.910000	           -1.290317	          287.783017	          -17.243326	           -0.245834	            0.006223	           -0.405760	           -0.006193	            1.381154	           -0.082756	           -0.449009	          256.452682	           19.874038	           -0.245924	            0.005563	           -0.688451	            0.001731	           -0.988766	           -0.076625
            0.910500	           -1.244687	          288.324050	          -17.286977	           -0.245280	            0.006221	           -0.405419	           -0.005992	            1.388017	           -0.083221	           -0.445748	          255.532450	           19.729968	           -0.245839	            0.005562	           -0.688001	            0.001653	           -0.947648	           -0.073169
            0.911000	           -1.198421	          288.503508	          -17.102894	           -0.245785	            0.006221	           -0.405492	           -0.005862	            1.411170	           -0.083656	           -0.213492	          256.085749	           19.731840	           -0.245651	            0.005562	           -0.687952	            0.000823	           -0.987722	           -0.076106
            0.911500	           -1.061591	          287.964144	          -17.426546	           -0.245456	            0.006222	           -0.405690	           -0.005202	            1.411012	           -0.085389	           -0.585736	          255.348639	           19.494730	           -0.245931	            0.005560	           -0.687526	            0.002124	           -0.925877	           -0.070687
            0.912000	           -1.290904	          288.504866	          -17.423658	           -0.245469	            0.006222	           -0.405671	           -0.006284	            1.404476	           -0.084820	           -0.584242	          254.978988	           19.868841	           -0.245576	            0.005561	           -0.687536	            0.002118	           -0.924275	           -0.072023
            0.912500	           -1.336520	          288.504464	          -17.331833	           -0.245538	            0.006221	           -0.405464	           -0.006605	            1.425732	           -0.085651	           -0.491310	          255.164335	           19.634818	           -0.245943	            0.005560	           -0.687569	            0.001759	           -0.913334	           -0.070281
            0.913000	           -1.748975	          287.783322	          -17.333900	           -0.245722	            0.006225	           -0.406302	           -0.007962	            1.310166	           -0.078915	           -0.634559	          255.900755	           19.543650	           -0.245985	            0.005562	           -0.688354	            0.002212	           -0.892089	           -0.068131
